<!-- This Source Code Form is subject to the terms of the Mozilla Public
   - License, v. 2.0. If a copy of the MPL was not distributed with this
   - file, You can obtain one at http://mozilla.org/MPL/2.0/. -->

<svg xmlns="http://www.w3.org/2000/svg"
   width="12"
   height="12">
  <circle
     cx="3.5" cy="6.3" r="2"
     fill="-moz-dialogtext" fill-opacity="0.5" />
  <circle
     cx="9" cy="6.3" r="2"
     fill="-moz-dialogtext" fill-opacity="0.5" />
  <path
     d="m 2.9375,4.015625 c -1.3738231,0 -2.5,1.1261771 -2.5,2.5 0,1.373823 1.1261769,2.5 2.5,2.5 1.3738229,0 2.46875,-1.126177 2.46875,-2.5 0,-0.1289629 -0.012477,-0.2510458 -0.03125,-0.375 0.1401338,-0.054831 0.3771973,-0.15625 0.53125,-0.15625 0.254885,0 0.4164559,0.102189 0.5625,0.1875 -0.016013,0.1134588 -0.03125,0.2261825 -0.03125,0.34375 0,1.3738231 1.126177,2.5 2.5,2.5 1.373823,0 2.5,-1.1261769 2.5,-2.5 0,-1.373823 -1.126177,-2.5 -2.5,-2.5 -0.899176,0 -1.682789,0.4986821 -2.125,1.21875 -0.26345,-0.1223 -0.61176,-0.25 -0.96875,-0.25 -0.2933382,0 -0.5893514,0.1288339 -0.8125,0.21875 C 4.5929732,4.5022572 3.8221349,4.015625 2.9375,4.015625 z m 0,1.03125 c 0.8333827,0 1.46875,0.6353672 1.46875,1.46875 0,0.8333829 -0.6353672,1.53125 -1.46875,1.53125 -0.833383,0 -1.5,-0.6978671 -1.5,-1.53125 0,-0.8333828 0.666617,-1.46875 1.5,-1.46875 z m 6,0 c 0.8333829,0 1.5,0.6353672 1.5,1.46875 0,0.8333829 -0.6666171,1.53125 -1.5,1.53125 -0.8333829,0 -1.5,-0.6978671 -1.5,-1.53125 0,-0.8333828 0.6666171,-1.46875 1.5,-1.46875 z"
     fill="-moz-dialogtext"/>
</svg>
