<!-- This Source Code Form is subject to the terms of the Mozilla Public
   - License, v. 2.0. If a copy of the MPL was not distributed with this
   - file, You can obtain one at http://mozilla.org/MPL/2.0/. -->

<svg xmlns="http://www.w3.org/2000/svg"
   width="14"
   height="12">
  <path
     d="M 2.03125 2.0625 L 2 10.0625 L 6 10.0625 L 6 9.0625 L 3 9.0625 L 3.03125 5.0625 L 6 5.0625 L 6 7.03125 L 7 7.03125 L 7 5.0625 L 9.96875 5.0625 L 9.96875 7.0625 L 10.96875 7.0625 L 10.96875 2.0625 L 2.03125 2.0625 z M 3.03125 3.0625 L 6 3.0625 L 6 4.0625 L 3.03125 4.0625 L 3.03125 3.0625 z M 7 3.0625 L 9.96875 3.0625 L 9.96875 4.0625 L 7 4.0625 L 7 3.0625 z M 12.53125 8.03125 L 6.59375 8.0625 L 9.5 11.40625 L 12.53125 8.03125 z "
     fill="-moz-dialogtext"/>
</svg>
