<!-- This Source Code Form is subject to the terms of the Mozilla Public
   - License, v. 2.0. If a copy of the MPL was not distributed with this
   - file, You can obtain one at http://mozilla.org/MPL/2.0/. -->

<svg xmlns="http://www.w3.org/2000/svg"
   width="12"
   height="12">
  <path
     d="m 7.40625,1041.375 c -0.6579177,-0.01 -1.2950719,0.1701 -1.75,0.625 l -4.5,4.5 c -0.093828,0.089 -0.1511698,0.2148 -0.15625,0.3438 l 0,4 c 2.62e-5,0.2618 0.2382078,0.5 0.5,0.5 l 5,0 c 0.124779,0 0.2501729,-0.042 0.34375,-0.125 l 4,-4 c 0.220814,-0.1709 0.248297,-0.5393 0.05529,-0.7411 -0.193006,-0.2018 -0.56222,-0.1907 -0.742792,0.022 l -3.84375,3.8438 -4.3125,0 0,-3.2813 4.34375,-4.3437 c 0.1942799,-0.1943 0.6213845,-0.3478 1.0625,-0.3438 0.4411155,0 0.8804423,0.1305 1.15625,0.4062 0.2826236,0.2827 0.4290743,0.7254 0.4375,1.1563 0.00843,0.4309 -0.1183301,0.8371 -0.34375,1.0625 l -2.625,2.3617 -1.3125,-0.018 3.125,-3.125 c 0.2217871,-0.1706 0.2498526,-0.54 0.056384,-0.7421 -0.1934689,-0.2022 -0.5637469,-0.1903 -0.7438837,0.024 l -3.28125,3.2812 c -0.1012973,0.096 -0.1595282,0.2356 -0.15625,0.375 l 0,0.706 c -5.038e-4,0.2725 0.2587093,0.5 0.53125,0.5 l 1.96875,0 c 0.1248437,0 0.2502484,-0.043 0.34375,-0.1255 l 2.78125,-2.5179 c 0.4690971,-0.4691 0.6690917,-1.1558 0.65625,-1.8126 -0.012842,-0.6567 -0.2193456,-1.3131 -0.71875,-1.8124 -0.5062613,-0.5061 -1.2170823,-0.7129 -1.875,-0.7188 z"
     transform="translate(0,-1040.3622)"
     fill="-moz-dialogtext"/>
</svg>
