<!-- This Source Code Form is subject to the terms of the Mozilla Public
   - License, v. 2.0. If a copy of the MPL was not distributed with this
   - file, You can obtain one at http://mozilla.org/MPL/2.0/. -->

<svg xmlns="http://www.w3.org/2000/svg"
   width="16"
   height="16">
<path
  d="m 8.0069177,2.00696 c -3.31231,0 -6.0000001,2.687692 -6.0000001,5.9999999 0,3.3123071 2.6876901,6.0312491 6.0000001,6.0312491 3.3123103,0 6.0312503,-2.718942 6.0312503,-6.0312491 0,-3.3123079 -2.71895,-5.9999999 -6.0312503,-5.9999999 z m 0,1.96875 c 2.2314203,0 4.0312503,1.799822 4.0312503,4.0312499 0,0.762167 -0.22915,1.456378 -0.59375,2.0624991 L 5.9444177,4.56946 c 0.60612,-0.364607 1.30033,-0.59375 2.0625,-0.59375 z m -3.53125,2.125 5.4375,5.437499 c -0.56766,0.304927 -1.21394,0.5 -1.90625,0.5 -2.23143,0 -4.03125,-1.799823 -4.03125,-4.0312491 0,-0.694785 0.19303,-1.3371649 0.5,-1.9062499 z"
  fill="-moz-dialogtext"/>
</svg>
