<!-- This Source Code Form is subject to the terms of the Mozilla Public
   - License, v. 2.0. If a copy of the MPL was not distributed with this
   - file, You can obtain one at http://mozilla.org/MPL/2.0/. -->

<svg xmlns="http://www.w3.org/2000/svg"
   width="16"
   height="16">
  <path
     d="m 6.03125,1.6875 -5.96875,4.84375 -0.03125,0.5 6,4.90625 0,-2.3125 L 2.8125,6.84375 6.03125,4.125 z M 10.0625,1.75 3.75,6.84375 10.0625,12 l 0,-2.875 c 1.079556,-0.01378 1.956215,0.043735 2.875,0.4375 0.13984,0.104613 0.19041,0.1529523 0.1875,0.28125 -0.0476,2.102937 -2.15625,4.375 -2.15625,4.375 l 0.5625,0.8125 c 0,0 1.09889,-0.448862 2.21875,-1.3125 C 14.86986,12.855112 16.0625,11.535608 16.0625,9.75 16.0625,8.598578 15.64384,7.659522 15,7 14.35617,6.340478 13.52173,5.929331 12.71875,5.65625 11.91578,5.383169 11.12272,5.248405 10.53125,5.1875 10.33819,5.16762 10.2085,5.16332 10.0625,5.15625 z"
  fill="-moz-dialogtext" />
</svg>
