<!-- This Source Code Form is subject to the terms of the Mozilla Public
   - License, v. 2.0. If a copy of the MPL was not distributed with this
   - file, You can obtain one at http://mozilla.org/MPL/2.0/. -->

<svg xmlns="http://www.w3.org/2000/svg"
  width="16"
  height="16">
<path
  d="m 2.5147716,1.0320002 c -0.4184879,0 -0.7690635,0.1639495 -1.0421316,0.4370229 C 1.1995613,1.7420965 1.002,2.126284 1.002,2.5447716 l 0,4.6727833 c 0.098216,0.6933029 0.4302887,1.0354003 0.8740458,1.479154 l 5.9838519,5.9838521 c 0.4232534,0.423252 1.1231354,0.423252 1.5463887,0 L 14.65056,9.4362863 c 0.423253,-0.4232524 0.423253,-1.1231376 0,-1.5463884 L 8.6667093,1.9060459 C 8.2209513,1.4473607 7.8314334,1.1117014 7.1875548,1.0320002 l -4.6727832,0 z m 1.142983,1.0421315 c 0.8927206,0 1.6136229,0.7208978 1.6136229,1.6136228 0,0.8927251 -0.7209023,1.6472401 -1.6136229,1.6472401 -0.8927209,0 -1.613623,-0.754515 -1.613623,-1.6472401 0,-0.892725 0.7209021,-1.6136228 1.613623,-1.6136228 z"
  fill="-moz-dialogtext"/>
</svg>
