<!-- This Source Code Form is subject to the terms of the Mozilla Public
   - License, v. 2.0. If a copy of the MPL was not distributed with this
   - file, You can obtain one at http://mozilla.org/MPL/2.0/. -->

<svg xmlns="http://www.w3.org/2000/svg"
   width="16"
   height="16">
<path
  d="m 2.1894775,0.99358449 c -0.66506,0 -1.1875,0.44600001 -1.1875,1.00000001 l 0,11.0000005 c 0,0.554 0.52244,1 1.1875,1 l 4.5625,0 c 0.805574,1.21621 2.1819426,2 3.7500005,2 2.48528,0 4.5,-2.014719 4.5,-4.5 0,-1.568059 -0.78379,-2.9444266 -2,-3.7500006 l 0,-5.7499999 c 0,-0.554 -0.52244,-1.00000001 -1.1875,-1.00000001 l -9.6250005,0 z m -0.1875,1.03125001 10.0000005,0 0,1.96875 -10.0000005,0 0,-1.96875 z m 0,3.96875 10.0000005,0 0,1.28125 c -0.47255,-0.1685377 -0.969567,-0.28125 -1.5,-0.28125 -1.0630539,0 -2.0424819,0.3836145 -2.8125009,0.9999999 l -5.6874996,0 0,-1.9999999 z m 8.9687505,1.9687499 0,2.0625006 c 1.83059,0.130318 2.69558,1.283347 3.09375,2.9375 -0.92438,-0.744456 -1.92258,-1.202523 -3.0625,-0.9375 l 0,1.90625 -4.0000005,-2.96875 3.9687505,-3.0000006 z m -8.9687505,2.0312496 4.28125,0 c -0.168538,0.472551 -0.28125,0.969567 -0.28125,1.500001 0,0.171777 0.04376,0.333229 0.0625,0.5 l -4.0625,0 0,-2.000001 z"
  fill="-moz-dialogtext"/>
</svg>
