<?xml version="1.0" encoding="UTF-8" standalone="no"?>
<!-- This Source Code Form is subject to the terms of the Mozilla Public
   - License, v. 2.0. If a copy of the MPL was not distributed with this
   - file, You can obtain one at http://mozilla.org/MPL/2.0/. -->

<!-- Created with Inkscape (http://www.inkscape.org/) -->
<svg
   xmlns:dc="http://purl.org/dc/elements/1.1/"
   xmlns:cc="http://web.resource.org/cc/"
   xmlns:rdf="http://www.w3.org/1999/02/22-rdf-syntax-ns#"
   xmlns:svg="http://www.w3.org/2000/svg"
   xmlns="http://www.w3.org/2000/svg"
   xmlns:xlink="http://www.w3.org/1999/xlink"
   xmlns:sodipodi="http://sodipodi.sourceforge.net/DTD/sodipodi-0.dtd"
   xmlns:inkscape="http://www.inkscape.org/namespaces/inkscape"
   width="500"
   height="500"
   id="svg2160"
   sodipodi:version="0.32"
   inkscape:version="0.45.1"
   version="1.0"
   sodipodi:docbase="C:\Documents and Settings\Owner.SPINELLOZONE\My Documents\seamonkey-icons-complete\msgcomposeWindow"
   sodipodi:docname="seamonkey-msgcomposeWindowSVG.svg"
   inkscape:output_extension="org.inkscape.output.svg.inkscape">
  <defs
     id="defs2162">
    <linearGradient
       y2="133.54459"
       x2="225.65819"
       y1="354.45773"
       x1="331.57434"
       gradientTransform="translate(155.91995,3.7227902)"
       gradientUnits="userSpaceOnUse"
       id="linearGradient2234"
       xlink:href="#linearGradient5074"
       inkscape:collect="always" />
    <linearGradient
       y2="786.83405"
       x2="553.63983"
       y1="596.54565"
       x1="441.50293"
       gradientTransform="translate(155.91995,3.7227902)"
       gradientUnits="userSpaceOnUse"
       id="linearGradient2232"
       xlink:href="#linearGradient5809"
       inkscape:collect="always" />
    <radialGradient
       gradientUnits="userSpaceOnUse"
       gradientTransform="matrix(1.389618,6.572876e-8,-1.395947e-8,0.295127,-1147.0601,218.83232)"
       r="37.656700"
       fy="334.10477"
       fx="822.35791"
       cy="334.10477"
       cx="822.35791"
       id="radialGradient11020"
       xlink:href="#linearGradient10990"
       inkscape:collect="always" />
    <radialGradient
       gradientUnits="userSpaceOnUse"
       gradientTransform="matrix(1.604552,0.137396,-4.558732e-2,0.532382,-1332.9848,57.130614)"
       r="48.537544"
       fy="379.37366"
       fx="834.06329"
       cy="379.37366"
       cx="834.06329"
       id="radialGradient11018"
       xlink:href="#linearGradient10990"
       inkscape:collect="always" />
    <radialGradient
       gradientUnits="userSpaceOnUse"
       gradientTransform="matrix(1.536957,0.35811,-0.115486,0.495648,-1220.8078,-81.019121)"
       r="51.490337"
       fy="416.62680"
       fx="834.16461"
       cy="416.62680"
       cx="834.16461"
       id="radialGradient11016"
       xlink:href="#linearGradient10990"
       inkscape:collect="always" />
    <radialGradient
       gradientUnits="userSpaceOnUse"
       gradientTransform="matrix(-0.523809,2.977912,-0.573765,-0.100924,597.43787,-1122.4516)"
       r="22.916662"
       fy="653.19714"
       fx="559.93085"
       cy="653.19714"
       cx="559.93085"
       id="radialGradient11014"
       xlink:href="#linearGradient10990"
       inkscape:collect="always" />
    <radialGradient
       gradientUnits="userSpaceOnUse"
       gradientTransform="matrix(-0.492499,4.368806,-0.629878,-7.100652e-2,732.99123,-2042.7743)"
       r="21.038260"
       fy="635.96777"
       fx="596.68011"
       cy="635.96777"
       cx="596.68011"
       id="radialGradient11012"
       xlink:href="#linearGradient10990"
       inkscape:collect="always" />
    <radialGradient
       gradientUnits="userSpaceOnUse"
       gradientTransform="matrix(1.261524e-6,4.784578,-0.528762,1.394159e-7,258.39389,-2486.0713)"
       r="20.071379"
       fy="620.45239"
       fx="637.07098"
       cy="620.45239"
       cx="637.07098"
       id="radialGradient11010"
       xlink:href="#linearGradient10990"
       inkscape:collect="always" />
    <radialGradient
       gradientUnits="userSpaceOnUse"
       gradientTransform="matrix(0.334297,4.019557,-0.995094,8.275962e-2,391.82207,-2240.9819)"
       r="23.940041"
       fy="613.80670"
       fx="665.83667"
       cy="613.80670"
       cx="665.83667"
       id="radialGradient11008"
       xlink:href="#linearGradient10990"
       inkscape:collect="always" />
    <radialGradient
       gradientUnits="userSpaceOnUse"
       gradientTransform="matrix(0.948955,4.089824,-0.993629,0.230546,-207.73447,-2450.4193)"
       r="27.265039"
       fy="592.33008"
       fx="696.78522"
       cy="592.33008"
       cx="696.78522"
       id="radialGradient11006"
       xlink:href="#linearGradient10990"
       inkscape:collect="always" />
    <radialGradient
       gradientUnits="userSpaceOnUse"
       gradientTransform="matrix(0.747853,2.224634,-0.425239,0.142953,-427.60907,-1188.9396)"
       r="39.235065"
       fy="565.76050"
       fx="734.74274"
       cy="565.76050"
       cx="734.74274"
       id="radialGradient11004"
       xlink:href="#linearGradient10990"
       inkscape:collect="always" />
    <radialGradient
       gradientUnits="userSpaceOnUse"
       gradientTransform="matrix(1.006265,1.510239,-0.401621,0.267598,-663.16697,-833.15883)"
       r="55.195084"
       fy="558.89948"
       fx="793.18164"
       cy="558.89948"
       cx="793.18164"
       id="radialGradient11002"
       xlink:href="#linearGradient10990"
       inkscape:collect="always" />
    <radialGradient
       gradientUnits="userSpaceOnUse"
       gradientTransform="matrix(1.238186,1.07492,-0.532416,0.613282,-668.29405,-630.01478)"
       r="57.855091"
       fy="520.16986"
       fx="799.92041"
       cy="520.16986"
       cx="799.92041"
       id="radialGradient11000"
       xlink:href="#linearGradient10990"
       inkscape:collect="always" />
    <radialGradient
       gradientUnits="userSpaceOnUse"
       gradientTransform="matrix(1.442415,0.58951,-0.216275,0.529183,-1132.7474,-269.06738)"
       r="53.865082"
       fy="457.29218"
       fx="825.40234"
       cy="457.29218"
       cx="825.40234"
       id="radialGradient10262"
       xlink:href="#linearGradient10990"
       inkscape:collect="always" />
    <radialGradient
       gradientUnits="userSpaceOnUse"
       gradientTransform="matrix(0.546319,0.218253,-0.436865,1.093538,105.62767,-147.06742)"
       r="165.43960"
       fy="432.99265"
       fx="425.42249"
       cy="432.99265"
       cx="425.42249"
       id="radialGradient5823"
       xlink:href="#linearGradient5817"
       inkscape:collect="always" />
    <linearGradient
       gradientTransform="translate(155.91995,3.7227902)"
       gradientUnits="userSpaceOnUse"
       y2="786.83405"
       x2="553.63983"
       y1="596.54565"
       x1="441.50293"
       id="linearGradient5815"
       xlink:href="#linearGradient5809"
       inkscape:collect="always" />
    <linearGradient
       gradientTransform="translate(155.91995,3.7227902)"
       gradientUnits="userSpaceOnUse"
       y2="133.54459"
       x2="225.65819"
       y1="354.45773"
       x1="331.57434"
       id="linearGradient5080"
       xlink:href="#linearGradient5074"
       inkscape:collect="always" />
    <linearGradient
       gradientTransform="translate(-478.87675,4.232021)"
       gradientUnits="userSpaceOnUse"
       y2="294.85672"
       x2="518.04419"
       y1="682.32623"
       x1="225.43034"
       id="linearGradient5072"
       xlink:href="#linearGradient5066"
       inkscape:collect="always" />
    <linearGradient
       gradientTransform="translate(-453.48462,5.6426947)"
       gradientUnits="userSpaceOnUse"
       y2="653.04156"
       x2="253.71039"
       y1="213.74759"
       x1="544.29083"
       id="linearGradient5002"
       xlink:href="#linearGradient4996"
       inkscape:collect="always" />
    <linearGradient
       id="linearGradient4996">
      <stop
         id="stop4998"
         offset="0"
         style="stop-color:#ffffff;stop-opacity:1;" />
      <stop
         id="stop5000"
         offset="1"
         style="stop-color:#ffffff;stop-opacity:0;" />
    </linearGradient>
    <linearGradient
       id="linearGradient5006">
      <stop
         id="stop5008"
         offset="0.00000000"
         style="stop-color:#dfefff;stop-opacity:0.50196081;" />
      <stop
         style="stop-color:#8ec6fe;stop-opacity:0.50196078;"
         offset="0.69999999"
         id="stop10260" />
      <stop
         style="stop-color:#3e9dfe;stop-opacity:0.50196081;"
         offset="0.80000001"
         id="stop5016" />
      <stop
         id="stop5010"
         offset="1.0000000"
         style="stop-color:#007dfd;stop-opacity:0.50196081;" />
    </linearGradient>
    <linearGradient
       id="linearGradient5066">
      <stop
         id="stop5068"
         offset="0.00000000"
         style="stop-color:#ffffff;stop-opacity:0.62886596;" />
      <stop
         id="stop5070"
         offset="1.0000000"
         style="stop-color:#ffffff;stop-opacity:0.00000000;" />
    </linearGradient>
    <linearGradient
       id="linearGradient5074">
      <stop
         id="stop5076"
         offset="0.00000000"
         style="stop-color:#2b2b9c;stop-opacity:1.0000000;" />
      <stop
         id="stop5078"
         offset="1.0000000"
         style="stop-color:#5c5cb3;stop-opacity:1.0000000;" />
    </linearGradient>
    <linearGradient
       id="linearGradient5809">
      <stop
         id="stop5811"
         offset="0.00000000"
         style="stop-color:#2727e8;stop-opacity:1.0000000;" />
      <stop
         id="stop5813"
         offset="1.0000000"
         style="stop-color:#5f5fee;stop-opacity:1.0000000;" />
    </linearGradient>
    <linearGradient
       id="linearGradient5817">
      <stop
         id="stop5819"
         offset="0.00000000"
         style="stop-color:#69b4ff;stop-opacity:1.0000000;" />
      <stop
         id="stop5821"
         offset="1.0000000"
         style="stop-color:#b0d8ff;stop-opacity:1.0000000;" />
    </linearGradient>
    <linearGradient
       id="linearGradient10990">
      <stop
         style="stop-color:#007ffe;stop-opacity:0.62745100;"
         offset="0.00000000"
         id="stop10992" />
      <stop
         id="stop10996"
         offset="0.80357140"
         style="stop-color:#3d9eff;stop-opacity:0.62745100;" />
      <stop
         style="stop-color:#a5d2ff;stop-opacity:0.62745100;"
         offset="1.0000000"
         id="stop10998" />
    </linearGradient>
    <linearGradient
       id="linearGradient4697">
      <stop
         id="stop4699"
         offset="0"
         style="stop-color:black;stop-opacity:0.49779737;" />
      <stop
         style="stop-color:black;stop-opacity:0.49803922;"
         offset="0.89999998"
         id="stop4707" />
      <stop
         id="stop4701"
         offset="1"
         style="stop-color:black;stop-opacity:0;" />
    </linearGradient>
    <linearGradient
       id="linearGradient5598">
      <stop
         id="stop5600"
         offset="0"
         style="stop-color:black;stop-opacity:0.49779737;" />
      <stop
         style="stop-color:black;stop-opacity:0.49803922;"
         offset="0.95266271"
         id="stop5606" />
      <stop
         id="stop5602"
         offset="1"
         style="stop-color:black;stop-opacity:0;" />
    </linearGradient>
    <linearGradient
       inkscape:collect="always"
       xlink:href="#linearGradient5074"
       id="linearGradient3457"
       gradientUnits="userSpaceOnUse"
       gradientTransform="matrix(0.1730824,0,0,0.1718448,-480.95396,201.6476)"
       x1="331.57434"
       y1="354.45773"
       x2="225.65819"
       y2="133.54459" />
    <linearGradient
       inkscape:collect="always"
       xlink:href="#linearGradient5809"
       id="linearGradient3460"
       gradientUnits="userSpaceOnUse"
       gradientTransform="matrix(0.1730824,0,0,0.1718448,-480.95396,201.6476)"
       x1="441.50293"
       y1="596.54565"
       x2="553.63983"
       y2="786.83405" />
    <linearGradient
       inkscape:collect="always"
       xlink:href="#linearGradient5809"
       id="linearGradient3507"
       gradientUnits="userSpaceOnUse"
       gradientTransform="matrix(0.1730824,0,0,0.1718448,373.11251,357.18549)"
       x1="441.50293"
       y1="596.54565"
       x2="553.63983"
       y2="786.83405" />
    <linearGradient
       inkscape:collect="always"
       xlink:href="#linearGradient5074"
       id="linearGradient3509"
       gradientUnits="userSpaceOnUse"
       gradientTransform="matrix(0.1730824,0,0,0.1718448,373.11251,357.18549)"
       x1="331.57434"
       y1="354.45773"
       x2="225.65819"
       y2="133.54459" />
    <linearGradient
       inkscape:collect="always"
       xlink:href="#linearGradient5809"
       id="linearGradient3564"
       gradientUnits="userSpaceOnUse"
       gradientTransform="matrix(0.1730824,0,0,0.1718448,373.11251,357.18549)"
       x1="441.50293"
       y1="596.54565"
       x2="553.63983"
       y2="786.83405" />
    <linearGradient
       inkscape:collect="always"
       xlink:href="#linearGradient5074"
       id="linearGradient3566"
       gradientUnits="userSpaceOnUse"
       gradientTransform="matrix(0.1730824,0,0,0.1718448,373.11251,357.18549)"
       x1="331.57434"
       y1="354.45773"
       x2="225.65819"
       y2="133.54459" />
    <linearGradient
       inkscape:collect="always"
       xlink:href="#linearGradient5809"
       id="linearGradient3600"
       gradientUnits="userSpaceOnUse"
       gradientTransform="matrix(0.1730824,0,0,0.1718448,373.11251,357.18549)"
       x1="441.50293"
       y1="596.54565"
       x2="553.63983"
       y2="786.83405" />
    <linearGradient
       inkscape:collect="always"
       xlink:href="#linearGradient5074"
       id="linearGradient3602"
       gradientUnits="userSpaceOnUse"
       gradientTransform="matrix(0.1730824,0,0,0.1718448,373.11251,357.18549)"
       x1="331.57434"
       y1="354.45773"
       x2="225.65819"
       y2="133.54459" />
    <linearGradient
       inkscape:collect="always"
       xlink:href="#linearGradient5809"
       id="linearGradient3681"
       gradientUnits="userSpaceOnUse"
       gradientTransform="matrix(0.1730824,0,0,0.1718448,373.11251,357.18549)"
       x1="441.50293"
       y1="596.54565"
       x2="553.63983"
       y2="786.83405" />
    <linearGradient
       inkscape:collect="always"
       xlink:href="#linearGradient5074"
       id="linearGradient3683"
       gradientUnits="userSpaceOnUse"
       gradientTransform="matrix(0.1730824,0,0,0.1718448,373.11251,357.18549)"
       x1="331.57434"
       y1="354.45773"
       x2="225.65819"
       y2="133.54459" />
    <linearGradient
       inkscape:collect="always"
       xlink:href="#linearGradient5809"
       id="linearGradient3807"
       gradientUnits="userSpaceOnUse"
       gradientTransform="matrix(0.1730824,0,0,0.1718448,373.11251,357.18549)"
       x1="441.50293"
       y1="596.54565"
       x2="553.63983"
       y2="786.83405" />
    <linearGradient
       inkscape:collect="always"
       xlink:href="#linearGradient5074"
       id="linearGradient3809"
       gradientUnits="userSpaceOnUse"
       gradientTransform="matrix(0.1730824,0,0,0.1718448,373.11251,357.18549)"
       x1="331.57434"
       y1="354.45773"
       x2="225.65819"
       y2="133.54459" />
  </defs>
  <sodipodi:namedview
     id="base"
     pagecolor="#ffffff"
     bordercolor="#666666"
     borderopacity="1.0"
     inkscape:pageopacity="0.0"
     inkscape:pageshadow="2"
     inkscape:zoom="4.4491943"
     inkscape:cx="176.12983"
     inkscape:cy="74.102991"
     inkscape:current-layer="layer1"
     showgrid="true"
     inkscape:grid-bbox="false"
     inkscape:document-units="px"
     inkscape:object-paths="false"
     inkscape:guide-bbox="false"
     width="500px"
     height="500px"
     inkscape:window-width="1440"
     inkscape:window-height="844"
     inkscape:window-x="0"
     inkscape:window-y="22" />
  <metadata
     id="metadata2165">
    <rdf:RDF>
      <cc:Work
         rdf:about="">
        <dc:format>image/svg+xml</dc:format>
        <dc:type
           rdf:resource="http://purl.org/dc/dcmitype/StillImage" />
      </cc:Work>
    </rdf:RDF>
  </metadata>
  <g
     id="layer1"
     inkscape:label="Layer 1"
     inkscape:groupmode="layer">
    <g
       style="display:inline"
       inkscape:label="Shadow"
       id="g3689"
       transform="translate(-710.70481,-18.44722)" />
    <g
       style="display:inline"
       inkscape:label="SeaMonkey"
       id="g3705"
       transform="translate(-710.70481,-18.44722)" />
    <g
       id="g3828">
      <g
         id="g3773"
         transform="translate(-349.93665,-12.96442)">
        <g
           style="display:inline"
           inkscape:label="Shadow"
           id="g3775" />
        <g
           style="display:inline"
           id="g3777"
           inkscape:label="Background">
          <g
             id="g3779">
            <path
               sodipodi:type="arc"
               style="fill:#9195e1;fill-opacity:1;fill-rule:evenodd;stroke:none;stroke-width:10;stroke-linecap:butt;stroke-linejoin:round;stroke-miterlimit:4;stroke-dasharray:none;stroke-dashoffset:0;stroke-opacity:1"
               id="path3781"
               sodipodi:cx="365.22308"
               sodipodi:cy="433.07086"
               sodipodi:rx="395.53806"
               sodipodi:ry="395.53806"
               d="M 760.76114 433.07086 A 395.53806 395.53806 0 1 1  -30.314972,433.07086 A 395.53806 395.53806 0 1 1  760.76114 433.07086 z"
               transform="matrix(0.1596245,0,0,0.1596247,379.49308,368.61522)" />
            <path
               style="fill:url(#linearGradient3807);fill-opacity:1;fill-rule:evenodd;stroke:none;stroke-width:1px;stroke-linecap:butt;stroke-linejoin:miter;stroke-opacity:1"
               d="M 383.85677,470.3348 C 377.53204,457.98527 375.8029,449.83833 374.32889,438.05062 C 378.14146,437.94123 379.22897,435.80777 405.78478,441.52285 C 412.95251,445.17623 425.27294,447.28507 427.75792,447.19904 C 429.11551,447.27814 440.81785,446.52116 442.80237,445.22243 C 444.78976,444.34028 458.801,442.11776 463.91919,441.56168 C 467.10108,441.09167 468.42806,440.43433 471.65702,440.40231 C 483.01314,435.05163 496.02212,436.88091 501.18154,438.05673 C 501.07384,442.40555 500.53825,448.50951 499.73619,451.31426 C 498.90133,455.26551 498.48114,457.35905 496.52855,460.90786 C 495.66551,464.98599 493.73148,467.62488 490.6986,472.53442 C 487.53223,477.49134 481.84147,482.66091 475.34008,488.08582 C 470.98549,493.97562 455.61977,497.11357 452.39233,498.97297 C 443.83341,501.28353 435.24983,502.14089 420.22819,498.1061 C 403.58315,494.46692 390.60207,479.49025 383.85677,470.3348 z "
               id="path3783"
               sodipodi:nodetypes="ccccccccccccccc"
               inkscape:export-xdpi="24.028801"
               inkscape:export-ydpi="24.028801" />
            <path
               style="fill:url(#linearGradient3809);fill-opacity:1;fill-rule:evenodd;stroke:none;stroke-width:1px;stroke-linecap:butt;stroke-linejoin:miter;stroke-opacity:1"
               d="M 375.79574,423.19042 C 376.46114,420.52879 378.05483,415.05973 379.69198,412.87686 C 382.42822,409.22852 386.68249,400.6601 389.77634,396.37516 C 394.2965,390.11479 408.02971,381.77281 414.07051,378.9567 C 423.39221,374.61108 446.52624,372.59535 459.45016,378.49832 C 464.99074,381.02897 475.71552,386.57191 480.07729,391.10378 C 484.14231,395.32736 490.59739,402.8387 493.82869,409.439 C 495.57775,413.01167 500.99233,427.2117 500.24601,427.31584 C 495.53266,427.97351 490.67725,429.69832 485.80703,431.21207 C 482.37937,432.27745 476.48862,435.10831 475.72267,435.10831 C 472.28481,435.10831 460.23197,434.26949 456.69987,434.42074 C 453.17776,434.57156 447.8344,434.5166 446.15714,434.87911 C 441.00943,435.99167 432.69168,434.7769 427.82192,431.89964 C 418.57716,433.82204 415.04824,435.24719 400.54829,430.52451 C 388.3259,426.54363 377.49956,429.46826 376.02493,429.83693 C 374.07594,430.32418 375.44514,424.59281 375.79574,423.19042 z "
               id="path3785"
               sodipodi:nodetypes="cssssssssssscsss" />
            <path
               style="fill:#b2b4ff;fill-opacity:0.50196078;fill-rule:evenodd;stroke:none;stroke-width:1px;stroke-linecap:butt;stroke-linejoin:miter;stroke-opacity:1"
               d="M 374.65256,430.0385 C 374.1887,430.34605 374.35404,436.70005 374.7261,439.81207 C 375.42381,441.15213 373.96937,442.96262 374.78727,444.23876 C 375.84956,445.50451 392.75119,448.41324 405.78478,441.52285 C 412.95251,445.17623 425.27294,447.28507 427.75792,447.19904 C 429.11551,447.27814 458.801,442.11776 463.91919,441.56168 C 467.10108,441.09167 470.26158,440.43433 473.49054,440.40231 C 475.67907,440.32301 485.08548,442.41714 487.59909,443.4404 C 495.57724,446.6882 498.5412,445.36222 500.03457,445.84665 C 500.38527,444.69491 500.99662,442.77975 500.65295,440.54231 C 500.50567,437.84705 501.46062,431.68974 500.42478,429.96717 C 499.56175,429.23232 500.65489,427.62005 499.65535,427.39573 C 496.29864,427.96353 490.39889,429.69905 485.51354,431.30509 C 481.21376,432.7304 479.36406,434.16468 476.48881,434.25965 C 473.78485,435.08987 466.87025,434.66767 463.75584,434.59846 C 457.13736,433.14541 450.20817,429.71277 443.01922,428.49117 C 439.12299,428.19282 431.02825,430.04129 427.80082,431.90068 C 422.67976,429.39825 411.16165,427.88261 406.91193,427.51487 C 391.41486,426.16632 379.20302,428.83964 374.65256,430.0385 z "
               id="path3787"
               sodipodi:nodetypes="cccccccsccccccccccc" />
            <path
               sodipodi:type="arc"
               style="fill:none;fill-opacity:0.36184208;fill-rule:evenodd;stroke:#26269a;stroke-width:10.80470085;stroke-linecap:butt;stroke-linejoin:round;stroke-miterlimit:4;stroke-dasharray:none;stroke-dashoffset:0;stroke-opacity:1"
               id="path3789"
               sodipodi:cx="365.22308"
               sodipodi:cy="433.07086"
               sodipodi:rx="395.53806"
               sodipodi:ry="395.53806"
               d="M 760.76114 433.07086 A 395.53806 395.53806 0 1 1  -30.314972,433.07086 A 395.53806 395.53806 0 1 1  760.76114 433.07086 z"
               transform="matrix(0.1596245,0,0,0.1596247,379.49308,368.61522)" />
          </g>
        </g>
        <g
           style="display:inline"
           inkscape:label="SeaMonkey"
           id="g3791" />
      </g>
      <g
         transform="translate(360.48635,6.9897052)"
         id="g3766">
        <path
           style="fill:#a2c2de;fill-opacity:1;fill-rule:nonzero;stroke:#2271bc;stroke-width:4.58545876;stroke-linecap:round;stroke-linejoin:miter;stroke-miterlimit:4;stroke-dasharray:none;stroke-opacity:1"
           d="M -271.625,356.1875 C -274.53082,366.0131 -276.68138,376.11022 -278.3125,386.21875 C -280.1006,399.15868 -281.63819,412.58751 -278.875,425.375 C -278.08622,429.4343 -275.05164,434.96654 -270.53125,432.6875 C -264.89694,429.505 -261.70389,423.03284 -258.6875,417.21875 C -250.81145,400.41286 -245.99977,382.10381 -243.125,363.625 C -251.64503,359.05508 -261.33524,356.39325 -271.625,356.1875 z "
           id="path3715" />
        <path
           style="fill:#000000;fill-opacity:0.99215686;fill-rule:nonzero;stroke:none;stroke-width:5;stroke-linecap:round;stroke-linejoin:miter;stroke-miterlimit:4;stroke-opacity:1"
           d="M -261.76711,429.68955 C -264.67446,435.63583 -268.47198,439.96515 -271.44762,442.6107 C -272.65579,443.68484 -273.35576,445.91486 -276.09496,445.62061 C -278.46512,445.32712 -280.72467,444.38016 -281.48545,443.07353 C -283.39587,439.79237 -284.64318,431.74649 -284.30153,425.88568 C -284.04476,421.89271 -283.67012,415.90395 -282.56628,411.3964 C -276.46564,408.80532 -270.44462,408.83261 -268.50576,409.58869 C -263.46848,411.55299 -259.38592,413.92179 -256.7493,418.38698 C -259.178,424.27773 -260.29766,426.58389 -261.76711,429.68955 z "
           id="path3717"
           sodipodi:nodetypes="csssccscc" />
        <path
           style="fill:#c5c5c5;fill-opacity:1;fill-rule:nonzero;stroke:#000000;stroke-width:2.29272938;stroke-linecap:round;stroke-linejoin:round;stroke-miterlimit:4;stroke-dasharray:none;stroke-opacity:1"
           d="M -262.17624,440.4275 C -261.44085,445.88114 -261.15659,452.27573 -263.41398,460.3349 C -264.02391,462.04465 -273.48264,459.99769 -278.92722,476.2825 C -280.31763,480.44116 -274.96335,442.67395 -276.39193,442.33954 C -277.84675,441.92085 -279.77057,477.66416 -279.87354,476.45321 C -280.96189,463.6559 -290.42424,461.22985 -290.65282,459.13745 C -291.34053,450.92358 -290.07602,442.94735 -286.89644,435.50029 C -285.20402,431.80258 -283.18614,428.11704 -279.38486,425.18144 C -277.84584,424.11827 -275.93148,422.91751 -272.94935,423.13457 C -270.19161,423.45573 -268.34121,425.13244 -267.18832,426.51203 C -264.38031,430.06711 -262.91195,434.45514 -262.17624,440.4275 z "
           id="path3719"
           sodipodi:nodetypes="cccssccsscc" />
      </g>
    </g>
    <g
       id="g2384">
      <g
         style="fill:none"
         transform="translate(-173.38695,-10.729614)"
         id="g2372">
        <g
           id="g2374"
           inkscape:label="Shadow"
           style="display:inline;fill:none" />
        <g
           inkscape:label="Background"
           id="g2376"
           style="display:inline;fill:none">
          <g
             style="fill:none"
             id="g2378">
            <path
               transform="matrix(0.1596245,0,0,0.1596247,379.49308,368.61522)"
               d="M 760.76114 433.07086 A 395.53806 395.53806 0 1 1  -30.314972,433.07086 A 395.53806 395.53806 0 1 1  760.76114 433.07086 z"
               sodipodi:ry="395.53806"
               sodipodi:rx="395.53806"
               sodipodi:cy="433.07086"
               sodipodi:cx="365.22308"
               id="path2380"
               style="fill:none;fill-opacity:1;fill-rule:evenodd;stroke:none;stroke-width:10;stroke-linecap:butt;stroke-linejoin:round;stroke-miterlimit:4;stroke-dasharray:none;stroke-dashoffset:0;stroke-opacity:1"
               sodipodi:type="arc" />
            <path
               inkscape:export-ydpi="24.028801"
               inkscape:export-xdpi="24.028801"
               sodipodi:nodetypes="ccccccccccccccc"
               id="path2382"
               d="M 383.85677,470.3348 C 377.53204,457.98527 375.8029,449.83833 374.32889,438.05062 C 378.14146,437.94123 379.22897,435.80777 405.78478,441.52285 C 412.95251,445.17623 425.27294,447.28507 427.75792,447.19904 C 429.11551,447.27814 440.81785,446.52116 442.80237,445.22243 C 444.78976,444.34028 458.801,442.11776 463.91919,441.56168 C 467.10108,441.09167 468.42806,440.43433 471.65702,440.40231 C 483.01314,435.05163 496.02212,436.88091 501.18154,438.05673 C 501.07384,442.40555 500.53825,448.50951 499.73619,451.31426 C 498.90133,455.26551 498.48114,457.35905 496.52855,460.90786 C 495.66551,464.98599 493.73148,467.62488 490.6986,472.53442 C 487.53223,477.49134 481.84147,482.66091 475.34008,488.08582 C 470.98549,493.97562 455.61977,497.11357 452.39233,498.97297 C 443.83341,501.28353 435.24983,502.14089 420.22819,498.1061 C 403.58315,494.46692 390.60207,479.49025 383.85677,470.3348 z "
               style="fill:none;fill-opacity:1;fill-rule:evenodd;stroke:none;stroke-width:1px;stroke-linecap:butt;stroke-linejoin:miter;stroke-opacity:1" />
            <path
               sodipodi:nodetypes="cssssssssssscsss"
               id="path2384"
               d="M 375.79574,423.19042 C 376.46114,420.52879 378.05483,415.05973 379.69198,412.87686 C 382.42822,409.22852 386.68249,400.6601 389.77634,396.37516 C 394.2965,390.11479 408.02971,381.77281 414.07051,378.9567 C 423.39221,374.61108 446.52624,372.59535 459.45016,378.49832 C 464.99074,381.02897 475.71552,386.57191 480.07729,391.10378 C 484.14231,395.32736 490.59739,402.8387 493.82869,409.439 C 495.57775,413.01167 500.99233,427.2117 500.24601,427.31584 C 495.53266,427.97351 490.67725,429.69832 485.80703,431.21207 C 482.37937,432.27745 476.48862,435.10831 475.72267,435.10831 C 472.28481,435.10831 460.23197,434.26949 456.69987,434.42074 C 453.17776,434.57156 447.8344,434.5166 446.15714,434.87911 C 441.00943,435.99167 432.69168,434.7769 427.82192,431.89964 C 418.57716,433.82204 415.04824,435.24719 400.54829,430.52451 C 388.3259,426.54363 377.49956,429.46826 376.02493,429.83693 C 374.07594,430.32418 375.44514,424.59281 375.79574,423.19042 z "
               style="fill:none;fill-opacity:1;fill-rule:evenodd;stroke:none;stroke-width:1px;stroke-linecap:butt;stroke-linejoin:miter;stroke-opacity:1" />
            <path
               sodipodi:nodetypes="cccccccsccccccccccc"
               id="path2386"
               d="M 374.65256,430.0385 C 374.1887,430.34605 374.35404,436.70005 374.7261,439.81207 C 375.42381,441.15213 373.96937,442.96262 374.78727,444.23876 C 375.84956,445.50451 392.75119,448.41324 405.78478,441.52285 C 412.95251,445.17623 425.27294,447.28507 427.75792,447.19904 C 429.11551,447.27814 458.801,442.11776 463.91919,441.56168 C 467.10108,441.09167 470.26158,440.43433 473.49054,440.40231 C 475.67907,440.32301 485.08548,442.41714 487.59909,443.4404 C 495.57724,446.6882 498.5412,445.36222 500.03457,445.84665 C 500.38527,444.69491 500.99662,442.77975 500.65295,440.54231 C 500.50567,437.84705 501.46062,431.68974 500.42478,429.96717 C 499.56175,429.23232 500.65489,427.62005 499.65535,427.39573 C 496.29864,427.96353 490.39889,429.69905 485.51354,431.30509 C 481.21376,432.7304 479.36406,434.16468 476.48881,434.25965 C 473.78485,435.08987 466.87025,434.66767 463.75584,434.59846 C 457.13736,433.14541 450.20817,429.71277 443.01922,428.49117 C 439.12299,428.19282 431.02825,430.04129 427.80082,431.90068 C 422.67976,429.39825 411.16165,427.88261 406.91193,427.51487 C 391.41486,426.16632 379.20302,428.83964 374.65256,430.0385 z "
               style="fill:none;fill-opacity:0.50196078;fill-rule:evenodd;stroke:none;stroke-width:1px;stroke-linecap:butt;stroke-linejoin:miter;stroke-opacity:1" />
            <path
               transform="matrix(0.1596245,0,0,0.1596247,379.49308,368.61522)"
               d="M 760.76114 433.07086 A 395.53806 395.53806 0 1 1  -30.314972,433.07086 A 395.53806 395.53806 0 1 1  760.76114 433.07086 z"
               sodipodi:ry="395.53806"
               sodipodi:rx="395.53806"
               sodipodi:cy="433.07086"
               sodipodi:cx="365.22308"
               id="path2388"
               style="fill:none;fill-opacity:0.36184208;fill-rule:evenodd;stroke:#26269a;stroke-width:10.80470085;stroke-linecap:butt;stroke-linejoin:round;stroke-miterlimit:4;stroke-dasharray:none;stroke-dashoffset:0;stroke-opacity:1"
               sodipodi:type="arc" />
          </g>
        </g>
        <g
           id="g2390"
           inkscape:label="SeaMonkey"
           style="display:inline;fill:none" />
      </g>
      <g
         id="g2392"
         transform="translate(537.03605,9.2245115)">
        <path
           id="path2394"
           d="M -271.625,356.1875 C -274.53082,366.0131 -276.68138,376.11022 -278.3125,386.21875 C -280.1006,399.15868 -281.63819,412.58751 -278.875,425.375 C -278.08622,429.4343 -275.05164,434.96654 -270.53125,432.6875 C -264.89694,429.505 -261.70389,423.03284 -258.6875,417.21875 C -250.81145,400.41286 -245.99977,382.10381 -243.125,363.625 C -251.64503,359.05508 -261.33524,356.39325 -271.625,356.1875 z "
           style="fill:#a2c2de;fill-opacity:1;fill-rule:nonzero;stroke:#2271bc;stroke-width:4.58545876;stroke-linecap:round;stroke-linejoin:miter;stroke-miterlimit:4;stroke-dasharray:none;stroke-opacity:1" />
        <path
           sodipodi:nodetypes="csssccscc"
           id="path2396"
           d="M -261.76711,429.68955 C -264.67446,435.63583 -268.47198,439.96515 -271.44762,442.6107 C -272.65579,443.68484 -273.35576,445.91486 -276.09496,445.62061 C -278.46512,445.32712 -280.72467,444.38016 -281.48545,443.07353 C -283.39587,439.79237 -284.64318,431.74649 -284.30153,425.88568 C -284.04476,421.89271 -283.67012,415.90395 -282.56628,411.3964 C -276.46564,408.80532 -270.44462,408.83261 -268.50576,409.58869 C -263.46848,411.55299 -259.38592,413.92179 -256.7493,418.38698 C -259.178,424.27773 -260.29766,426.58389 -261.76711,429.68955 z "
           style="fill:#000000;fill-opacity:0.99215686;fill-rule:nonzero;stroke:none;stroke-width:5;stroke-linecap:round;stroke-linejoin:miter;stroke-miterlimit:4;stroke-opacity:1" />
        <path
           sodipodi:nodetypes="cccssccsscc"
           id="path2398"
           d="M -262.17624,440.4275 C -261.44085,445.88114 -261.15659,452.27573 -263.41398,460.3349 C -264.02391,462.04465 -273.48264,459.99769 -278.92722,476.2825 C -280.31763,480.44116 -274.96335,442.67395 -276.39193,442.33954 C -277.84675,441.92085 -279.77057,477.66416 -279.87354,476.45321 C -280.96189,463.6559 -290.42424,461.22985 -290.65282,459.13745 C -291.34053,450.92358 -290.07602,442.94735 -286.89644,435.50029 C -285.20402,431.80258 -283.18614,428.11704 -279.38486,425.18144 C -277.84584,424.11827 -275.93148,422.91751 -272.94935,423.13457 C -270.19161,423.45573 -268.34121,425.13244 -267.18832,426.51203 C -264.38031,430.06711 -262.91195,434.45514 -262.17624,440.4275 z "
           style="fill:#c5c5c5;fill-opacity:1;fill-rule:nonzero;stroke:#000000;stroke-width:2.29272938;stroke-linecap:round;stroke-linejoin:round;stroke-miterlimit:4;stroke-dasharray:none;stroke-opacity:1" />
      </g>
    </g>
  </g>
</svg>
