<?xml version="1.0" encoding="UTF-8" standalone="no"?>
<!-- Created with Inkscape (http://www.inkscape.org/) -->
<svg
   xmlns:dc="http://purl.org/dc/elements/1.1/"
   xmlns:cc="http://web.resource.org/cc/"
   xmlns:rdf="http://www.w3.org/1999/02/22-rdf-syntax-ns#"
   xmlns:svg="http://www.w3.org/2000/svg"
   xmlns="http://www.w3.org/2000/svg"
   xmlns:sodipodi="http://inkscape.sourceforge.net/DTD/sodipodi-0.dtd"
   xmlns:inkscape="http://www.inkscape.org/namespaces/inkscape"
   width="744.09448819"
   height="1052.3622047"
   id="svg2"
   sodipodi:version="0.32"
   inkscape:version="0.43"
   sodipodi:docbase="/home/ghendricks/workspace/bnc-3.0/testopia/img"
   sodipodi:docname="add.svg">
  <defs
     id="defs4" />
  <sodipodi:namedview
     id="base"
     pagecolor="#ffffff"
     bordercolor="#666666"
     borderopacity="1.0"
     inkscape:pageopacity="0.0"
     inkscape:pageshadow="2"
     inkscape:zoom="0.98994949"
     inkscape:cx="326.72888"
     inkscape:cy="-65.596699"
     inkscape:document-units="px"
     inkscape:current-layer="layer1"
     showgrid="true"
     showguides="true"
     inkscape:guide-bbox="true"
     inkscape:window-width="1212"
     inkscape:window-height="946"
     inkscape:window-x="173"
     inkscape:window-y="131">
    <sodipodi:guide
       orientation="horizontal"
       position="825.29463"
       id="guide3836" />
    <sodipodi:guide
       orientation="horizontal"
       position="620.23366"
       id="guide3838" />
  </sodipodi:namedview>
  <metadata
     id="metadata7">
    <rdf:RDF>
      <cc:Work
         rdf:about="">
        <dc:format>image/svg+xml</dc:format>
        <dc:type
           rdf:resource="http://purl.org/dc/dcmitype/StillImage" />
      </cc:Work>
    </rdf:RDF>
  </metadata>
  <g
     inkscape:label="Layer 1"
     inkscape:groupmode="layer"
     id="layer1">
    <path
       style="fill:#00bfd3;fill-opacity:1;stroke:#000000;stroke-width:3.09202647;stroke-linecap:round;stroke-linejoin:round;stroke-miterlimit:4;stroke-dasharray:none;stroke-opacity:1"
       d="M 71.355001,893.66892 C 66.904462,893.9496 63.412864,897.64798 63.412864,902.17771 L 63.412864,955.40597 L 10.256072,955.40597 C 5.5485334,955.40597 1.75871,959.20089 1.75871,963.91476 L 1.75871,981.87507 C 1.75871,986.58894 5.5485334,990.38385 10.256072,990.38386 L 63.412864,990.38386 L 63.412864,1042.0651 C 63.412864,1046.779 67.202688,1050.5739 71.910227,1050.5739 L 89.84642,1050.5739 C 94.553958,1050.5739 98.343781,1046.779 98.343781,1042.0651 L 98.343781,990.38386 L 149.9556,990.38386 C 154.66314,990.38386 158.45296,986.58893 158.45296,981.87507 L 158.45296,963.91476 C 158.45296,959.20089 154.66314,955.40597 149.9556,955.40597 L 98.343781,955.40597 L 98.343781,902.17771 C 98.343781,897.46384 94.553958,893.66892 89.84642,893.66892 L 71.910227,893.66892 C 71.726336,893.66892 71.535918,893.65751 71.355001,893.66892 z "
       id="rect1307"
       inkscape:export-filename="/home/ghendricks/workspace/bnc-3.0/testopia/img/add.png"
       inkscape:export-xdpi="9.0100002"
       inkscape:export-ydpi="9.0100002" />
  </g>
</svg>
