<?xml version="1.0" encoding="UTF-8" standalone="no"?>
<!-- Created with Inkscape (http://www.inkscape.org/) -->
<svg
   xmlns:dc="http://purl.org/dc/elements/1.1/"
   xmlns:cc="http://web.resource.org/cc/"
   xmlns:rdf="http://www.w3.org/1999/02/22-rdf-syntax-ns#"
   xmlns:svg="http://www.w3.org/2000/svg"
   xmlns="http://www.w3.org/2000/svg"
   xmlns:sodipodi="http://inkscape.sourceforge.net/DTD/sodipodi-0.dtd"
   xmlns:inkscape="http://www.inkscape.org/namespaces/inkscape"
   width="744.09448819"
   height="1052.3622047"
   id="svg2"
   sodipodi:version="0.32"
   inkscape:version="0.43"
   sodipodi:docbase="/home/ghendricks/workspace/bnc-3.0/testopia/img"
   sodipodi:docname="delete.svg">
  <defs
     id="defs4" />
  <sodipodi:namedview
     id="base"
     pagecolor="#ffffff"
     bordercolor="#666666"
     borderopacity="1.0"
     inkscape:pageopacity="0.0"
     inkscape:pageshadow="2"
     inkscape:zoom="0.98994949"
     inkscape:cx="326.72888"
     inkscape:cy="-65.596699"
     inkscape:document-units="px"
     inkscape:current-layer="layer1"
     showgrid="true"
     showguides="true"
     inkscape:guide-bbox="true"
     inkscape:window-width="1212"
     inkscape:window-height="946"
     inkscape:window-x="173"
     inkscape:window-y="131">
    <sodipodi:guide
       orientation="horizontal"
       position="825.29463"
       id="guide3836" />
    <sodipodi:guide
       orientation="horizontal"
       position="620.23366"
       id="guide3838" />
  </sodipodi:namedview>
  <metadata
     id="metadata7">
    <rdf:RDF>
      <cc:Work
         rdf:about="">
        <dc:format>image/svg+xml</dc:format>
        <dc:type
           rdf:resource="http://purl.org/dc/dcmitype/StillImage" />
      </cc:Work>
    </rdf:RDF>
  </metadata>
  <g
     inkscape:label="Layer 1"
     inkscape:groupmode="layer"
     id="layer1">
    <path
       style="fill:#ca010a;fill-opacity:1;stroke:#000000;stroke-width:3.09202647;stroke-linecap:round;stroke-linejoin:round;stroke-miterlimit:4;stroke-dasharray:none;stroke-opacity:1"
       d="M 129.88444,910.85663 C 126.56277,907.88131 121.47767,907.98666 118.24904,911.16383 L 80.309743,948.49823 L 43.025467,910.60988 C 39.72359,907.2545 34.360511,907.21501 31.000624,910.52133 L 18.199127,923.11872 C 14.83924,926.42504 14.792547,931.78806 18.094417,935.14344 L 55.378693,973.03179 L 18.542063,1009.2811 C 15.182156,1012.5874 15.13547,1017.9505 18.437347,1021.3058 L 31.017827,1034.0901 C 34.319703,1037.4455 39.682768,1037.485 43.042675,1034.1787 L 79.879305,997.92936 L 116.07993,1034.7165 C 119.38181,1038.0719 124.7449,1038.1114 128.10477,1034.8051 L 140.90627,1022.2077 C 144.26616,1018.9013 144.31286,1013.5383 141.01098,1010.1829 L 104.81036,973.3958 L 142.74965,936.06139 C 146.10953,932.75508 146.15623,927.39206 142.85436,924.03668 L 130.27388,911.25237 C 130.1449,911.1213 130.01947,910.97758 129.88444,910.85663 z "
       id="rect1307"
       inkscape:export-filename="/home/ghendricks/workspace/bnc-3.0/testopia/img/add.png"
       inkscape:export-xdpi="9.0100002"
       inkscape:export-ydpi="9.0100002" />
  </g>
</svg>
