<?xml version="1.0" encoding="UTF-8" standalone="no"?>
<!-- Created with Inkscape (http://www.inkscape.org/) -->
<svg
   xmlns:dc="http://purl.org/dc/elements/1.1/"
   xmlns:cc="http://web.resource.org/cc/"
   xmlns:rdf="http://www.w3.org/1999/02/22-rdf-syntax-ns#"
   xmlns:svg="http://www.w3.org/2000/svg"
   xmlns="http://www.w3.org/2000/svg"
   xmlns:sodipodi="http://inkscape.sourceforge.net/DTD/sodipodi-0.dtd"
   xmlns:inkscape="http://www.inkscape.org/namespaces/inkscape"
   width="744.09448819"
   height="1052.3622047"
   id="svg2"
   sodipodi:version="0.32"
   inkscape:version="0.43"
   sodipodi:docbase="/home/ghendricks/workspace/bnc-3.0/testopia/img"
   sodipodi:docname="link.svg">
  <defs
     id="defs4" />
  <sodipodi:namedview
     id="base"
     pagecolor="#ffffff"
     bordercolor="#666666"
     borderopacity="1.0"
     inkscape:pageopacity="0.0"
     inkscape:pageshadow="2"
     inkscape:zoom="0.7"
     inkscape:cx="280.40218"
     inkscape:cy="762.56728"
     inkscape:document-units="px"
     inkscape:current-layer="layer1"
     inkscape:window-width="1588"
     inkscape:window-height="1138"
     inkscape:window-x="6"
     inkscape:window-y="31" />
  <metadata
     id="metadata7">
    <rdf:RDF>
      <cc:Work
         rdf:about="">
        <dc:format>image/svg+xml</dc:format>
        <dc:type
           rdf:resource="http://purl.org/dc/dcmitype/StillImage" />
      </cc:Work>
    </rdf:RDF>
  </metadata>
  <g
     inkscape:label="Layer 1"
     inkscape:groupmode="layer"
     id="layer1">
    <g
       id="g2220"
       transform="matrix(0.694138,0,0,0.668649,-144.0612,-419.2452)"
       inkscape:export-filename="/home/ghendricks/workspace/bnc-3.0/testopia/img/link.png"
       inkscape:export-xdpi="1.9299999"
       inkscape:export-ydpi="1.9299999">
      <path
         d="M 1034.2857 1097.3622 A 496.42856 496.42856 0 1 1  41.428558,1097.3622 A 496.42856 496.42856 0 1 1  1034.2857 1097.3622 z"
         sodipodi:ry="496.42856"
         sodipodi:rx="496.42856"
         sodipodi:cy="1097.3622"
         sodipodi:cx="537.85712"
         id="path2214"
         style="fill:#576eff;fill-opacity:1;stroke:#000000;stroke-width:23.48540497;stroke-linecap:round;stroke-linejoin:round;stroke-miterlimit:4;stroke-dasharray:none;stroke-opacity:1"
         sodipodi:type="arc" />
      <path
         id="path2216"
         d="M 642.85715,690.93361 C 643.33334,691.4098 643.80953,691.88599 644.28572,692.36218 C 667.45938,715.53585 712.45524,748.2993 722.85715,779.50504 C 729.37835,799.06864 737.14286,802.88527 737.14286,825.21933 C 737.14286,844.11844 741.92372,855.03532 730,870.93361 C 717.20508,887.99351 704.64743,900.50321 685.71429,908.07647 C 674.65662,912.49954 664.04586,914.41016 652.85715,916.6479 C 639.3118,919.35697 626.53586,920.0824 612.85715,922.36218 C 602.79973,924.03842 593.74677,926.18426 584.28572,928.07647 C 575.55957,929.8217 566.79387,934.40964 560,939.50504 C 550.15181,946.89118 542.65916,959.45691 534.28572,969.50504 C 528.35335,976.62389 534.65499,991.85678 537.14286,998.07647 C 540.38466,1006.1809 546.82551,1016.0132 550,1022.3622 C 554.72008,1031.8023 557.45028,1036.449 560,1046.6479 C 563.38856,1060.2021 551.66701,1059.3858 542.85715,1063.7907 C 533.76932,1068.3346 506.82604,1063.6851 498.57143,1060.9336 C 494.71165,1059.647 490.95239,1058.0764 487.14286,1056.6479 C 472.67605,1051.2228 456.78633,1048.7016 442.85715,1045.2193 C 432.39771,1042.6044 424.90797,1037.4542 417.14286,1045.2193 C 410.19391,1052.1682 403.01398,1057.7628 398.57143,1066.6479 C 395.31589,1073.1589 395.71429,1078.6751 395.71429,1086.6479 C 395.71429,1097.5877 400.48054,1111.8947 404.28572,1119.505 C 407.53284,1125.9993 414.34788,1131.3373 421.42858,1136.6479 C 431.80539,1144.4305 459.86476,1145.478 472.85715,1148.0764 C 481.94324,1149.8937 487.81034,1158.7439 492.85715,1163.7907 C 499.40085,1170.3344 505.70174,1182.337 510,1190.9336 C 514.01473,1198.963 514.94772,1207.8673 517.14286,1216.6479 C 519.86234,1227.5258 523.41605,1242.2995 525.71429,1253.7907 C 529.94961,1274.9673 583.41576,1283.9304 600,1288.0764 C 610.65335,1290.7398 614.65162,1292.7281 621.42858,1299.505 C 629.09743,1307.1739 635.11837,1316.052 642.85715,1323.7907 C 646.32133,1327.2549 648.22955,1348.8213 651.42858,1355.2193 C 655.51694,1363.396 652.85715,1378.4698 652.85715,1388.0764 C 652.85715,1401.4085 647.82795,1409.6802 645.71429,1422.3622 C 644.02305,1432.5096 642.85715,1443.9249 642.85715,1453.7907 C 642.85715,1468.7172 638.54141,1485.3694 635.71429,1499.505 C 633.46557,1510.7486 632.7629,1517.2497 625.71429,1526.6479 C 618.17293,1536.703 611.20657,1538.0764 598.57143,1538.0764 C 588.33289,1538.0764 578.39338,1538.7462 570,1536.6479 C 562.11522,1534.6767 553.99306,1529.2123 550,1525.2193 C 535.11629,1510.3356 521.48282,1493.845 507.14286,1479.505 C 500.13561,1472.4978 493.71429,1466.0764 487.14286,1459.505 C 481.31635,1453.6785 469.08047,1446.1881 461.42858,1442.3622 C 451.65963,1437.4777 441.16888,1430.485 430,1422.3622 C 419.61979,1414.8129 410.1728,1411.02 401.42858,1406.6479 C 387.57367,1399.7204 370.35461,1379.8596 360,1369.505 C 353.20841,1362.7134 350.68737,1357.9687 348.57143,1349.505 C 346.2285,1340.1333 340.85842,1331.5101 338.57143,1322.3622 C 336.42768,1313.7871 334.93938,1304.9768 332.85715,1296.6479 C 330.55182,1287.4265 332.85715,1274.8243 332.85715,1265.2193 C 332.85715,1256.0114 334.28572,1248.5951 334.28572,1239.505 C 334.28572,1229.061 334.95566,1220.8449 331.42858,1213.7907 C 327.87544,1206.6844 325.99069,1202.9149 322.85715,1196.6479 C 319.21452,1189.3626 311.046,1183.4082 305.71429,1178.0764 C 299.49319,1171.8553 294.15489,1166.517 288.57143,1160.9336 C 277.05757,1149.4197 267.01241,1137.2969 254.28572,1130.9336 C 245.81055,1126.696 237.84892,1115.2083 231.42858,1106.6479 C 225.2706,1098.4372 222.32279,1093.0819 220,1083.7907 C 218.01227,1075.8398 220,1064.8122 220,1056.6479 C 220,1047.8905 218.23999,1039.7337 220,1030.9336 C 221.94628,1021.2022 224.96309,1013.9384 227.14286,1005.2193 C 230.06924,993.51383 234.1253,981.57529 237.14286,969.50504 C 240.34715,956.68788 241.42858,942.78731 241.42858,929.50504 C 241.42858,914.72949 235.17905,903.43647 232.85715,889.50504 C 229.62626,870.11972 213.24813,853.01383 204.28572,838.07647 C 199.22951,829.64946 191.99301,818.64091 185.71429,812.36218 C 181.02811,807.676 177.32489,800.70013 174.28572,796.6479 C 170.13653,791.11565 167.87511,785.91565 174.28572,779.50504 C 181.42728,772.36347 188.69017,767.95773 194.28572,762.36218 C 201.17379,755.47411 218.17299,752.5614 227.14286,748.07647 C 236.38572,743.45504 248.49858,739.16611 258.57143,736.6479 C 260.47619,736.17171 262.38096,735.69552 264.28572,735.21933 C 272.58417,733.14471 285.08061,724.61566 294.28572,720.93361 C 304.56155,716.82328 316.24571,712.43533 327.14286,708.07647 C 328.96582,707.34729 330.95239,707.12409 332.85715,706.6479 C 345.80806,703.41017 358.19135,699.29534 371.42858,696.6479 C 383.10388,694.31284 395.57846,695.71816 407.14286,693.79076 C 424.22301,690.94406 444.09876,693.79076 461.42858,693.79076 C 484.28572,693.79076 507.14286,693.79076 530,693.79076 C 546.19048,693.79076 562.38096,693.79076 578.57143,693.79076 C 589.04762,693.79076 599.52381,693.79076 610,693.79076 C 622.23941,693.79076 632.01545,697.43863 642.85715,690.93361 z "
         style="fill:#66db7d;fill-opacity:1;fill-rule:evenodd;stroke:#000000;stroke-width:1.46783781px;stroke-linecap:butt;stroke-linejoin:miter;stroke-opacity:1" />
      <path
         sodipodi:nodetypes="csssssssssssssssssssscssssc"
         id="path2218"
         d="M 798.57143,800.93361 C 833.76761,836.16503 779.02533,781.38751 815.71429,818.07647 C 826.64398,829.00616 838.27692,842.06767 850,853.79075 C 860.07533,863.86608 867.17098,873.81888 877.14286,883.79075 C 885.55917,892.20707 888.57143,907.58571 888.57143,919.50504 C 888.57143,929.22226 888.2603,935.84159 884.28572,943.79075 C 878.84351,954.67516 877.43584,963.38058 870,973.79075 C 864.34561,981.70691 860.86648,987.20999 855.71429,992.36218 C 849.63377,998.4427 846.48349,1004.4501 840,1010.9336 C 833.41146,1017.5221 826.96986,1026.9938 822.85714,1035.2193 C 819.13301,1042.6675 816.20848,1050.3853 814.28572,1058.0764 C 812.26769,1066.1485 809.19957,1073.963 805.71429,1080.9335 C 801.56839,1089.2253 800.76675,1096.438 798.57143,1105.2193 C 796.47974,1113.586 798.57143,1125.8361 798.57143,1133.7907 C 798.57143,1146.288 797.35045,1155.8175 794.28572,1168.0764 C 791.56484,1178.9599 784.42256,1188.9576 781.42857,1200.9335 C 779.22069,1209.7651 780.76572,1225.425 782.85714,1233.7907 C 786.18965,1247.1207 791.42857,1269.5175 791.42857,1282.3621 C 791.42857,1295.7415 800.28883,1302.9398 805.71429,1313.7907 C 815.91349,1334.1891 824.82193,1354.3269 840,1369.505 C 846.91432,1376.4193 853.39513,1381.6569 855.71429,1390.9335 C 858.78268,1403.2071 868.56025,1410.9224 875.71429,1418.0764 C 887.9438,1420.5223 916.68721,1398.4705 930,1378.0764 C 954.34041,1340.789 976.25099,1318.861 991.42858,1268.0764 C 999.66898,1240.5038 1043.7015,1125.7239 1020,1022.3622 C 984.08043,865.71789 922.3143,815.07648 907.14286,806.6479 C 877.20571,790.01615 805.28884,807.65102 798.57143,800.93361 z "
         style="fill:#66db7d;fill-opacity:1;fill-rule:evenodd;stroke:#000000;stroke-width:1.46783781px;stroke-linecap:butt;stroke-linejoin:miter;stroke-opacity:1" />
    </g>
    <path
       style="fill:#ecdb7d;fill-opacity:1;stroke:#000000;stroke-width:14.5030365;stroke-linecap:round;stroke-linejoin:round;stroke-miterlimit:4;stroke-dasharray:none;stroke-opacity:1"
       d="M 120.69462,292.29401 C 23.350697,293.38143 -55.268989,363.32018 -55.268989,449.32967 C -55.268989,536.01639 24.61395,606.36533 123.01779,606.36533 C 221.42163,606.36533 301.27137,536.01637 301.27137,449.32967 C 301.27137,362.64295 221.42162,292.29399 123.01779,292.29401 C 122.24901,292.29401 121.46111,292.28544 120.69462,292.29401 z M 123.05097,384.90741 C 123.89279,384.89387 124.72636,384.90741 125.57327,384.90741 C 179.77637,384.90742 223.77703,412.81665 223.77703,447.20849 C 223.77703,481.60034 179.77637,509.50956 125.57327,509.50956 C 71.370187,509.50955 27.402709,481.60032 27.402709,447.20849 C 27.402708,413.35404 70.017066,385.76089 123.05097,384.90741 z "
       id="path1307"
       inkscape:export-filename="/home/ghendricks/workspace/bnc-3.0/testopia/img/link.png"
       inkscape:export-xdpi="1.9299999"
       inkscape:export-ydpi="1.9299999" />
    <path
       style="fill:#ecdb7d;fill-opacity:1;stroke:#000000;stroke-width:14.5030365;stroke-linecap:round;stroke-linejoin:round;stroke-miterlimit:4;stroke-dasharray:none;stroke-opacity:1"
       d="M 433.68975,292.29401 C 336.34583,293.38143 257.72614,363.32018 257.72614,449.32967 C 257.72614,536.01639 337.60908,606.36533 436.01292,606.36533 C 534.41676,606.36533 614.26651,536.01637 614.26651,449.32967 C 614.26651,362.64295 534.41675,292.29399 436.01292,292.29401 C 435.24414,292.29401 434.45624,292.28544 433.68975,292.29401 z M 436.04611,384.90741 C 436.88792,384.89386 437.72149,384.90741 438.56841,384.90741 C 492.77151,384.90742 536.77216,412.81665 536.77216,447.20849 C 536.77216,481.60034 492.77151,509.50956 438.56841,509.50956 C 384.36532,509.50955 340.39784,481.60032 340.39784,447.20849 C 340.39784,413.35404 383.0122,385.76089 436.04611,384.90741 z "
       id="path2284"
       inkscape:export-filename="/home/ghendricks/workspace/bnc-3.0/testopia/img/link.png"
       inkscape:export-xdpi="1.9299999"
       inkscape:export-ydpi="1.9299999" />
    <rect
       style="fill:#ecdb7d;fill-opacity:1;stroke:#000000;stroke-width:16.00000191;stroke-linecap:round;stroke-linejoin:round;stroke-miterlimit:4;stroke-dasharray:none;stroke-opacity:1"
       id="rect2186"
       width="374.7417"
       height="133.21672"
       x="92.127907"
       y="381.00513"
       ry="68.384583"
       inkscape:export-filename="/home/ghendricks/workspace/bnc-3.0/testopia/img/link.png"
       inkscape:export-xdpi="1.9299999"
       inkscape:export-ydpi="1.9299999" />
  </g>
</svg>
