/* XPM */
static char * bell_16_xpm[] = {
"16 16 100 2",
"  	c None",
". 	c #AB5F1C",
"+ 	c #A55C1B",
"@ 	c #F5D8B5",
"# 	c #FAF1D9",
"$ 	c #9D571A",
"% 	c #FAD071",
"& 	c #FABC32",
"* 	c #955318",
"= 	c #945218",
"- 	c #975419",
"; 	c #E7DDD5",
"> 	c #AE7C4E",
", 	c #D4B899",
"' 	c #F2E6D3",
") 	c #F2E6CF",
"! 	c #D4B691",
"~ 	c #AE7B48",
"{ 	c #935218",
"] 	c #A97743",
"^ 	c #E8D7BD",
"/ 	c #FFF7D6",
"( 	c #FFF2BD",
"_ 	c #FFEDAC",
": 	c #FFEEB0",
"< 	c #E8CF9B",
"[ 	c #CEB290",
"} 	c #FFF1B6",
"| 	c #FFEB9A",
"1 	c #FFE480",
"2 	c #FFE071",
"3 	c #FFDE76",
"4 	c #CEA869",
"5 	c #804815",
"6 	c #A9794D",
"7 	c #FFF0C0",
"8 	c #FFEFAC",
"9 	c #FFE991",
"0 	c #FFE276",
"a 	c #FFDC5E",
"b 	c #FFD652",
"c 	c #EFC968",
"d 	c #7E4615",
"e 	c #AB835E",
"f 	c #EBDCBB",
"g 	c #F8E8C1",
"h 	c #FFE8A5",
"i 	c #FFDE7C",
"j 	c #FFD664",
"k 	c #FFD051",
"l 	c #FFCB40",
"m 	c #FFCB37",
"n 	c #F8CB4D",
"o 	c #F6D071",
"p 	c #9A6B41",
"q 	c #F2EDE9",
"r 	c #A7805D",
"s 	c #E4CBAC",
"t 	c #FDEDCD",
"u 	c #FFD775",
"v 	c #FFC233",
"w 	c #FFBA1A",
"x 	c #FFB616",
"y 	c #FFB011",
"z 	c #FFAA0D",
"A 	c #FFAA11",
"B 	c #FFB61E",
"C 	c #FED87A",
"D 	c #E5C692",
"E 	c #895629",
"F 	c #6A3B12",
"G 	c #E19F4B",
"H 	c #EFAB42",
"I 	c #CF9328",
"J 	c #B17918",
"K 	c #956015",
"L 	c #6A604B",
"M 	c #557484",
"N 	c #6A5F4A",
"O 	c #955A10",
"P 	c #B16B0D",
"Q 	c #D07F0C",
"R 	c #F19E1A",
"S 	c #E2A64C",
"T 	c #914F10",
"U 	c #8D5315",
"V 	c #673A11",
"W 	c #496675",
"X 	c #E5EDF0",
"Y 	c #B8BEC1",
"Z 	c #8D500E",
"` 	c #925310",
" .	c #532F0D",
"..	c #5A330F",
"+.	c #5E350F",
"@.	c #385260",
"#.	c #E4F1F6",
"$.	c #B1BDC1",
"%.	c #1E2F39",
"&.	c #29404D",
"              . .               ",
"            + @ # +             ",
"            $ % & $             ",
"              * *               ",
"            = - - =             ",
"        ; > , ' ) ! ~ {         ",
"      ; ] ^ / ( _ : < ]         ",
"      [ ^ / } | 1 2 3 4 5       ",
"      6 / 7 8 9 0 a b c d       ",
"    e f g h i j k l m n o p     ",
"q r s t u v w x y z A B C D E q ",
"F G H I J K L M M N O P Q R S F ",
"  T U V V V W X Y W V V V Z `   ",
"       ...+.@.#.$.@.+... .      ",
"            %.&.&.%.            ",
"                                "};
