/* XPM */
static char * event_dialog_xpm[] = {
"16 16 92 2",
"  	c None",
". 	c #636C73",
"+ 	c #525A60",
"@ 	c #444B50",
"# 	c #F6F8F9",
"$ 	c #BE916C",
"% 	c #C59B77",
"& 	c #A08670",
"* 	c #535658",
"= 	c #BC8F6B",
"- 	c #AC7B54",
"; 	c #77675B",
"> 	c #2A2D30",
", 	c #B88C68",
"' 	c #A06F4C",
") 	c #8C6A51",
"! 	c #292D30",
"~ 	c #7D6655",
"{ 	c #B58A66",
"] 	c #D7D7D7",
"^ 	c #B08563",
"/ 	c #FDFEFE",
"( 	c #FFFFFF",
"_ 	c #AC8260",
": 	c #FBFCFD",
"< 	c #FDFEFF",
"[ 	c #789AD0",
"} 	c #FDFDFE",
"| 	c #A77E5C",
"1 	c #F8FAFC",
"2 	c #FBFCFE",
"3 	c #FAFCFD",
"4 	c #7796CC",
"5 	c #F5F7FA",
"6 	c #7796CB",
"7 	c #AAC0E2",
"8 	c #A27A59",
"9 	c #F4F7FB",
"0 	c #7184B9",
"a 	c #7082B7",
"b 	c #7590C6",
"c 	c #7590C5",
"d 	c #7490C6",
"e 	c #7490C5",
"f 	c #4AA637",
"g 	c #9D7656",
"h 	c #F1F5F9",
"i 	c #7289BE",
"j 	c #738ABE",
"k 	c #489C36",
"l 	c #E8FFD7",
"m 	c #479C37",
"n 	c #F4F8FB",
"o 	c #E1C0A4",
"p 	c #997353",
"q 	c #EDF2F8",
"r 	c #7082B6",
"s 	c #6F82B7",
"t 	c #458F35",
"u 	c #459035",
"v 	c #C9FAB9",
"w 	c #458F36",
"x 	c #459036",
"y 	c #449035",
"z 	c #946E50",
"A 	c #EAF0F6",
"B 	c #6D7BAF",
"C 	c #F8F9FB",
"D 	c #F0F5F9",
"E 	c #428034",
"F 	c #9AF38E",
"G 	c #99F38E",
"H 	c #9AF38F",
"I 	c #99F38F",
"J 	c #418034",
"K 	c #E8EFF6",
"L 	c #6C75A9",
"M 	c #6C75AA",
"N 	c #6B75A9",
"O 	c #3F7332",
"P 	c #3E7333",
"Q 	c #6BEC64",
"R 	c #916C4D",
"S 	c #E7EFF5",
"T 	c #E7EEF5",
"U 	c #E8EEF6",
"V 	c #E8EFF5",
"W 	c #E8EEF5",
"X 	c #3C6A32",
"Y 	c #4BE746",
"Z 	c #956843",
"` 	c #E8BF9C",
"      . + .         . + .       ",
"      @ # @         @ # @       ",
"$ % % & # * % % % % & # * % % $ ",
"= - - ; # > - - - - ; # > - - = ",
", ' ' ) ! ~ ' ' ' ' ) ! ~ ' ' , ",
"{ ] ] ] ] ] ] ] ] ] ] ] ] ] ] { ",
"^ / / / / / / / / / / / ( ( ( ^ ",
"_ : < < [ [ [ [ [ [ [ [ [ [ } _ ",
"| 1 2 3 4 5 6 5 5 6 5 7 : 7 : _ ",
"8 9 0 a b c d c e b 7 f f f 5 | ",
"g h 0 2 i 5 j 5 5 7 5 k l m n o ",
"p q a r a a s s 7 t t u v w x y ",
"z A B C B C B D 5 E F G H F I J ",
"z K L L M N N M i O P P Q P P P ",
"R K S K T U K V U V W X Y X K o ",
"Z Z Z Z Z Z Z Z Z Z ` X X X ` Z "};
