/* XPM */
static char * calendar_task_dialog_xpm[] = {
"16 16 118 2",
"  	c None",
". 	c #595B5D",
"+ 	c #CAC6B8",
"@ 	c #9A917C",
"# 	c #545556",
"$ 	c #F6F8F9",
"% 	c #D8D19E",
"& 	c #F1EACC",
"* 	c #CFCECB",
"= 	c #A49B88",
"- 	c #B09069",
"; 	c #AF8F67",
"> 	c #987F5F",
", 	c #4C4C4E",
"' 	c #D9DBDD",
") 	c #9FA5A8",
"! 	c #4D4B4B",
"~ 	c #BBAF83",
"{ 	c #F7F1C6",
"] 	c #D6B87C",
"^ 	c #CCB07C",
"/ 	c #9C8A6D",
"( 	c #AE8E68",
"_ 	c #CEB596",
": 	c #EEDCC5",
"< 	c #7D7770",
"[ 	c #EBEDEE",
"} 	c #CDD1D4",
"| 	c #B5AA92",
"1 	c #FBF9CF",
"2 	c #DBC18A",
"3 	c #CCAC72",
"4 	c #9C7B4B",
"5 	c #AA8B63",
"6 	c #E8D1B2",
"7 	c #BEA38C",
"8 	c #7E6B61",
"9 	c #484544",
"0 	c #393B3C",
"a 	c #564D41",
"b 	c #F0EDCB",
"c 	c #E4D0A0",
"d 	c #D0B278",
"e 	c #AB8B56",
"f 	c #93744E",
"g 	c #A78861",
"h 	c #E1C39B",
"i 	c #A18472",
"j 	c #E7EAF3",
"k 	c #C9CDD4",
"l 	c #C0C3CA",
"m 	c #ADAAAA",
"n 	c #D7D1AF",
"o 	c #EEE2C3",
"p 	c #D3B57D",
"q 	c #B99A63",
"r 	c #A0825C",
"s 	c #A3855E",
"t 	c #DFBE94",
"u 	c #9F816D",
"v 	c #DDE8FE",
"w 	c #D7DFF3",
"x 	c #C1B79E",
"y 	c #F7F1DA",
"z 	c #D6BB89",
"A 	c #C3A46E",
"B 	c #8A6C45",
"C 	c #DAB990",
"D 	c #9E805B",
"E 	c #DDBB8F",
"F 	c #9E7F69",
"G 	c #B5B1B4",
"H 	c #EDE5CF",
"I 	c #DCC498",
"J 	c #CAAE7C",
"K 	c #997C52",
"L 	c #93745D",
"M 	c #9A7D58",
"N 	c #DCB98B",
"O 	c #9D7E66",
"P 	c #D9EAFD",
"Q 	c #AD9C8C",
"R 	c #E3D4C1",
"S 	c #C6AC85",
"T 	c #A2855A",
"U 	c #B0B0B1",
"V 	c #957855",
"W 	c #D6E6FD",
"X 	c #C2CBD9",
"Y 	c #C9B5A1",
"Z 	c #D5C4B1",
"` 	c #987C63",
" .	c #ADACB0",
"..	c #917552",
"+.	c #D4E4FB",
"@.	c #A9A8A9",
"#.	c #CEC1B2",
"$.	c #A8998B",
"%.	c #C4CDDC",
"&.	c #8D724F",
"*.	c #DDBA8C",
"=.	c #9E7E67",
"-.	c #D2E5FC",
";.	c #8A8078",
">.	c #9D9D9F",
",.	c #CFE1F6",
"'.	c #886D4B",
").	c #E9C698",
"!.	c #A68670",
"~.	c #E8F1FF",
"{.	c #846A48",
"].	c #FCD9AB",
"^.	c #D2B091",
"/.	c #B4937E",
"(.	c #826848",
"_.	c #AF9169",
":.	c #86663F",
"<.	c #85663D",
"            . . . .       + @   ",
"            # $ $ #     % & * = ",
"    - ; > , ' ) ) ' ! ~ { ] ^ / ",
"  ( _ : < [ } } } } | 1 2 3 4   ",
"  5 6 7 8 9 0 0 0 a b c d e f   ",
"  g h i j k l l m n o p q r g   ",
"  s t u v v v w x y z A B C s   ",
"  D E F v v v G H I J K L E D   ",
"  M N O P P P Q R S T U O N D   ",
"  V N O W W X Y Z `  .W O N V   ",
"  ..N O +.+.@.#.$.%.+.+.O N ..  ",
"  &.*.=.-.-.;.>.,.,.,.,.=.*.&.  ",
"  '.).!.~.~.~.~.~.~.~.~.!.).'.  ",
"  {.].^././././././././.^.].{.  ",
"  (._.N N N N N N N N N N _.(.  ",
"    :.<.<.<.<.<.<.<.<.<.<.<.    "};
