/* XPM */
static char * calendar_event_dialog_xpm[] = {
"16 16 67 1",
" 	c #FFFFFF",
".	c #B1B5B9",
"+	c #7D8387",
"@	c #5B6165",
"#	c #F6F8F9",
"$	c #BE916C",
"%	c #C59B77",
"&	c #A08670",
"*	c #535658",
"=	c #BC8F6B",
"-	c #AC7B54",
";	c #77675B",
">	c #2A2D30",
",	c #B88C68",
"'	c #A06F4C",
")	c #8C6A51",
"!	c #292D30",
"~	c #7D6655",
"{	c #B58A66",
"]	c #D7D7D7",
"^	c #B08563",
"/	c #FDFEFE",
"(	c #AC8260",
"_	c #FBFCFD",
":	c #FDFEFF",
"<	c #789AD0",
"[	c #FDFDFE",
"}	c #A77E5C",
"|	c #F8FAFC",
"1	c #FBFCFE",
"2	c #FAFCFD",
"3	c #7796CC",
"4	c #F5F7FA",
"5	c #7796CB",
"6	c #A27A59",
"7	c #F4F7FB",
"8	c #7184B9",
"9	c #7082B7",
"0	c #7590C6",
"a	c #7590C5",
"b	c #7490C6",
"c	c #7490C5",
"d	c #9D7656",
"e	c #F1F5F9",
"f	c #7289BE",
"g	c #738ABE",
"h	c #F4F8FB",
"i	c #997353",
"j	c #EDF2F8",
"k	c #7082B6",
"l	c #6F82B7",
"m	c #946E50",
"n	c #EAF0F6",
"o	c #6D7BAF",
"p	c #F8F9FB",
"q	c #F0F5F9",
"r	c #E8EFF6",
"s	c #6C75A9",
"t	c #6C75AA",
"u	c #6B75A9",
"v	c #916C4D",
"w	c #E7EFF5",
"x	c #E7EEF5",
"y	c #E8EEF6",
"z	c #E8EFF5",
"A	c #E8EEF5",
"B	c #956843",
"   .+.    .+.   ",
"   @#@    @#@   ",
"$%%&#*%%%%&#*%%$",
"=--;#>----;#>--=",
",'')!~'''')!~'',",
"{]]]]]]]]]]]]]]{",
"^///////////   ^",
"(_::<<<<<<<<<<[(",
"}|1234544545_5_(",
"67890abac000007}",
"de81f4g44g4g4ghd",
"ij9k99llllllllji",
"mnopopoq4o4o4onm",
"mrsstuutttttttrm",
"vrwrxyrzyzAAAArv",
"BBBBBBBBBBBBBBBB"};
