<!-- This Source Code Form is subject to the terms of the Mozilla Public
   - License, v. 2.0. If a copy of the MPL was not distributed with this
   - file, You can obtain one at http://mozilla.org/MPL/2.0/. -->

<svg xmlns="http://www.w3.org/2000/svg"
   width="12"
   height="12">
  <circle
     cx="3.5" cy="6.3" r="2"
     fill="-moz-dialogtext" fill-opacity="0.5" />
  <circle
     cx="9" cy="6.3" r="2"
     fill="-moz-dialogtext" fill-opacity="0.5" />
  <path
     d="m 3.53125,4.015625 c -1.3738231,0 -2.5,1.1261771 -2.5,2.5 0,1.373823 1.1261769,2.5 2.5,2.5 C 4.9050729,9.015625 6,7.889448 6,6.515625 6,6.3866621 5.987523,6.2645792 5.96875,6.140625 6.1088838,6.085794 6.3459473,5.984375 6.5,5.984375 c 0.254885,0 0.4164559,0.102189 0.5625,0.1875 -0.016013,0.1134588 -0.03125,0.2261825 -0.03125,0.34375 0,1.3738231 1.126177,2.5 2.5,2.5 1.373823,0 2.5,-1.1261769 2.5,-2.5 0,-1.373823 -1.126177,-2.5 -2.5,-2.5 -0.899176,0 -1.682789,0.4986821 -2.125,1.21875 -0.26345,-0.1223 -0.61176,-0.25 -0.96875,-0.25 -0.2933382,0 -0.5893514,0.1288339 -0.8125,0.21875 -0.4382768,-0.7008678 -1.2091151,-1.1875 -2.09375,-1.1875 z m 0,1.03125 C 4.3646327,5.046875 5,5.6822422 5,6.515625 c 0,0.8333829 -0.6353672,1.53125 -1.46875,1.53125 -0.833383,0 -1.5,-0.6978671 -1.5,-1.53125 0,-0.8333828 0.666617,-1.46875 1.5,-1.46875 z m 6,0 c 0.833383,0 1.5,0.6353672 1.5,1.46875 0,0.8333829 -0.666617,1.53125 -1.5,1.53125 -0.8333829,0 -1.5,-0.6978671 -1.5,-1.53125 0,-0.8333828 0.6666171,-1.46875 1.5,-1.46875 z"
     fill="-moz-dialogtext"/>
</svg>
